<svg width="400" height="400" viewBox="0 0 400 400" fill="none" xmlns="http://www.w3.org/2000/svg">
<rect x="400" y="400" width="400" height="400" rx="100" transform="rotate(-180 400 400)" fill="black"/>
<path d="M240.625 156.196L235.845 167.746L235.845 167.746L240.625 156.196ZM293.658 288.894C300.037 291.534 307.348 288.502 309.988 282.123C312.627 275.744 309.596 268.433 303.217 265.794L293.658 288.894ZM99.3107 181.419C92.9316 178.779 85.6206 181.81 82.981 188.189C80.3415 194.568 83.3729 201.879 89.7519 204.519L99.3107 181.419ZM127.206 100H272.794V75H127.206V100ZM272.794 300H127.206V325H272.794V300ZM100 272.794V127.206H75V272.794H100ZM127.206 300C112.18 300 100 287.82 100 272.794H75C75 301.627 98.3734 325 127.206 325V300ZM300 272.794C300 287.82 287.82 300 272.794 300V325C301.627 325 325 301.627 325 272.794H300ZM272.794 100C287.82 100 300 112.18 300 127.206H325C325 98.3734 301.627 75 272.794 75V100ZM127.206 75C98.3734 75 75 98.3734 75 127.206H100C100 112.18 112.18 100 127.206 100V75ZM300 185.938V272.794H325V185.938H300ZM103.814 113.113L235.845 167.746L245.404 144.646L113.373 90.0123L103.814 113.113ZM235.845 167.746L307.721 197.488L317.279 174.387L245.404 144.646L235.845 167.746ZM261.712 88.7496L229.542 150.414L251.707 161.978L283.877 100.313L261.712 88.7496ZM303.217 265.794L99.3107 181.419L89.7519 204.519L293.658 288.894L303.217 265.794ZM300 127.206V185.938H325V127.206H300Z" fill="white"/>
</svg>
